<svg width="96" height="96" viewBox="0 0 303 636" fill="none" xmlns="http://www.w3.org/2000/svg">
<path d="M183 360C210.667 365.333 231.167 371 244.5 377C258.167 383 268 392 274 404C280.333 415.667 283.5 432.667 283.5 455C283.5 480 279 499.667 270 514C261 528.333 246.833 538.667 227.5 545C208.167 551 181.833 554 148.5 554C103.5 554 61.8333 549 23.5 539V450H58L66.5 507.5C93.1667 513.833 121 517 150 517C174.667 517 193.333 515.167 206 511.5C219 507.833 227.833 502.167 232.5 494.5C237.167 486.5 239.5 475.667 239.5 462C239.5 445.333 237.5 433.667 233.5 427C229.5 420.333 221.5 415.167 209.5 411.5C197.5 407.833 174.333 402.833 140 396.5L127.5 394C100.167 389 79 383 64 376C49.3333 368.667 38.8333 359.167 32.5 347.5C26.5 335.833 23.5 320.333 23.5 301C23.5 277.333 27.8333 258.667 36.5 245C45.5 231 59.5 221 78.5 215C97.5 209 122.833 206 154.5 206C193.5 206 233.833 210.333 275.5 219V306.5H242.5L234.5 251C209.167 245.667 181.833 243 152.5 243C129.5 243 111.833 244.833 99.5 248.5C87.1667 251.833 78.6667 257.167 74 264.5C69.6667 271.5 67.5 281.167 67.5 293.5C67.5 308.833 69.6667 319.833 74 326.5C78.6667 333.167 87 338.333 99 342C111.333 345.667 134.167 350.667 167.5 357L183 360Z" fill="#13678A"/>
<path d="M302.05 398V417.95L276.15 428.1V636H240.45L105.7 435.45V606.25L133.35 616.75V636H54.25V616.75L80.15 606.25V428.1L54.25 417.95V398H115.85L250.25 598.2V428.1L222.6 417.95V398H302.05Z" fill="#012030"/>
</svg>
