<svg width="480" height="480" viewBox="0 0 480 480" fill="none" xmlns="http://www.w3.org/2000/svg">
<path d="M88.9959 46.172C74.834 54.6831 63.8399 68.8116 56.0136 88.5573C48.3736 107.963 44.5536 132.134 44.5536 161.072C44.5536 174.009 45.2058 182.86 46.5102 187.627C47.8146 192.393 48.4668 195.287 48.4668 196.308C28.5283 196.308 18.559 180.818 18.559 149.837C18.559 128.73 22.938 107.622 31.6961 86.5147C40.6404 65.0667 52.0072 47.704 65.7965 34.4267C79.772 20.8089 93.6544 14 107.444 14C114.338 14 121.419 16.3831 128.687 21.1493L122.258 290.271L183.75 21.1493H224L194.651 397H154.402L172.29 167.711L119.742 397H81.4491L87.0393 166.689L40.3609 397H18L88.9959 46.172Z" fill="#6467CC"/>
<path d="M392.391 452C364.772 452 350.962 442.304 350.962 422.911C350.962 416.544 352.024 409.308 354.149 401.203C356.627 392.81 359.991 382.1 364.24 369.076C369.198 355.472 372.916 343.894 375.394 334.343C377.873 324.791 379.112 316.253 379.112 308.728C379.112 289.046 368.49 279.205 347.244 279.205C341.578 279.205 335.736 279.784 329.716 280.941L287.225 444.619H210.74L282.976 168.494L361.585 159.811L335.559 260.102H339.808C353.618 260.102 366.365 256.194 378.05 248.379C389.735 240.565 398.765 230.868 405.138 219.291C411.866 207.424 415.23 195.846 415.23 184.558C415.23 171.244 410.273 160.39 400.358 151.996C390.798 143.313 376.28 138.971 356.805 138.971C328.123 138.971 302.982 143.168 281.382 151.562C259.783 159.956 242.963 172.112 230.924 188.031C219.239 203.95 213.396 222.764 213.396 244.472C213.396 255.181 214.636 262.707 217.114 267.048C219.593 271.1 220.832 273.416 220.832 273.995C201.711 273.995 187.37 270.811 177.81 264.443C168.603 257.786 164 246.932 164 231.881C164 213.357 173.206 195.412 191.619 178.046C210.386 160.39 234.288 146.207 263.324 135.498C292.359 124.499 321.395 119 350.431 119C376.988 119 399.296 122.184 417.355 128.552C435.413 134.919 448.869 143.458 457.721 154.167C466.574 164.587 471 176.02 471 188.465C471 202.069 465.866 215.673 455.597 229.276C445.328 242.88 431.341 254.023 413.637 262.707C427.092 265.89 436.476 271.245 441.787 278.771C447.453 286.007 450.285 295.124 450.285 306.123C450.285 314.516 449.046 323.489 446.567 333.04C444.089 342.303 440.548 353.88 435.945 367.773C433.112 376.746 430.456 385.574 427.978 394.257C425.499 402.94 424.26 410.176 424.26 415.965C424.26 422.622 426.03 428.555 429.571 433.765C433.466 438.975 438.6 442.593 444.974 444.619C423.374 449.54 405.847 452 392.391 452Z" fill="#48E5F0"/>
</svg>
